<?xml version="1.0" encoding="UTF-8"?>
<svg version="1.1" xmlns="http://www.w3.org/2000/svg" width="531" height="470">
<path d="M0 0 C5.47659473 7.7585092 4.23663919 18.06915255 2.82421875 26.89453125 C1.69706553 32.32220754 0.06717937 37.40062524 -1.9375 42.5625 C-2.29714844 43.52542969 -2.65679687 44.48835938 -3.02734375 45.48046875 C-9.14107847 61.06328754 -18.82113961 76.97201356 -29.9375 89.5625 C-30.5975 89.5625 -31.2575 89.5625 -31.9375 89.5625 C-32.18886719 90.15160156 -32.44023437 90.74070312 -32.69921875 91.34765625 C-34.09205401 93.83894202 -35.5583572 95.18550414 -37.75 97 C-40.0637749 98.92889165 -42.19174241 100.83124617 -44.265625 103.0234375 C-47.2157465 105.82691553 -50.33932804 107.79757835 -53.875 109.75 C-54.46990234 110.09224609 -55.06480469 110.43449219 -55.67773438 110.78710938 C-62.61022554 114.68900331 -68.99204305 116.75683293 -76.9375 115.5625 C-81.35786613 113.78940538 -83.49113363 111.32564251 -85.875 107.25 C-89.51784081 95.11478656 -86.5846588 82.27688424 -82.9375 70.5625 C-82.61007812 69.49773437 -82.28265625 68.43296875 -81.9453125 67.3359375 C-76.03049035 50.2822532 -65.22557477 35.43431518 -53.9375 21.5625 C-53.48681152 21.00433594 -53.03612305 20.44617188 -52.57177734 19.87109375 C-43.20699292 8.41934072 -29.36224729 -2.76390854 -14.4609375 -5.30859375 C-8.61564754 -5.60719215 -4.43216895 -3.67775722 0 0 Z " fill="#96CAEB" transform="translate(351.9375,76.4375)"/>
<path d="M0 0 C7.17510754 3.50601846 14.43029597 7.72451773 20.5625 12.875 C20.5625 13.535 20.5625 14.195 20.5625 14.875 C21.15417969 15.15085937 21.74585938 15.42671875 22.35546875 15.7109375 C28.99051894 19.2104861 33.82462092 25.20928627 38.5625 30.875 C39.26375 31.67679688 39.965 32.47859375 40.6875 33.3046875 C45.0932018 38.45997051 48.93134611 43.77163974 52.4375 49.5625 C52.80665527 50.16779541 53.17581055 50.77309082 53.55615234 51.39672852 C58.13706257 59.17879483 61.05144416 66.71226668 59.5625 75.875 C57.5625 79.0625 57.5625 79.0625 54.5625 80.875 C41.42444414 82.62674078 29.19808838 73.95405935 19.15234375 66.35546875 C13.82823668 62.10305291 13.82823668 62.10305291 11.5625 59.875 C11.5625 59.215 11.5625 58.555 11.5625 57.875 C11.02109375 57.66875 10.4796875 57.4625 9.921875 57.25 C6.64131988 55.33815331 4.32405826 52.67001496 1.8125 49.875 C1.30589844 49.3284375 0.79929688 48.781875 0.27734375 48.21875 C-3.4375 44.13342318 -3.4375 44.13342318 -3.4375 41.875 C-4.0975 41.875 -4.7575 41.875 -5.4375 41.875 C-13.51622947 32.12761608 -23.44772404 16.93444164 -22.4375 3.875 C-17.95453942 -5.98751327 -8.42872634 -3.65888837 0 0 Z " fill="#CEB2D2" transform="translate(199.4375,100.125)"/>
<path d="M0 0 C3.28931514 1.72689045 3.8140267 2.4420801 5 6 C5.09905192 7.45102409 5.14547221 8.90600212 5.15771484 10.36035156 C5.16797699 11.23846497 5.17823914 12.11657837 5.18881226 13.02130127 C5.19611359 13.9681781 5.20341492 14.91505493 5.2109375 15.890625 C5.23901267 17.89974764 5.26767717 19.90886211 5.296875 21.91796875 C5.33807709 25.0821911 5.37496882 28.24626211 5.40136719 31.41064453 C5.42906784 34.46679109 5.47494593 37.52224686 5.5234375 40.578125 C5.52669037 41.51690491 5.52994324 42.45568481 5.53329468 43.4229126 C5.63705754 49.00188531 6.18099989 53.12696262 9 58 C12.47485074 60.99634332 17.30571576 60.30569555 21.67578125 60.30078125 C22.5191655 60.30506638 23.36254974 60.3093515 24.23149109 60.31376648 C26.01426294 60.31950251 27.79705819 60.32001539 29.57983398 60.31567383 C32.29256709 60.31252315 35.00419926 60.33594911 37.71679688 60.36132812 C39.45312363 60.36360229 41.1894533 60.36430407 42.92578125 60.36328125 C43.73018143 60.372491 44.5345816 60.38170074 45.36335754 60.39118958 C50.62893982 60.34844851 54.33437778 59.49575994 59 57 C60.52089755 53.95820489 60.177409 50.77647661 60.2109375 47.4375 C60.2389955 45.90363497 60.26765989 44.36978093 60.296875 42.8359375 C60.33822392 40.41308781 60.37510356 37.99044576 60.40136719 35.56738281 C60.42888706 33.2319894 60.47474373 30.89753477 60.5234375 28.5625 C60.52669037 27.83538818 60.52994324 27.10827637 60.53329468 26.35913086 C60.58349609 24.31640625 60.58349609 24.31640625 61 21 C64.45662331 18.69558446 65.94857881 18.74139865 70 19 C70.66 19.33 71.32 19.66 72 20 C72.00410889 21.00377686 72.00821777 22.00755371 72.01245117 23.04174805 C72.03428312 26.77891844 72.08861294 30.51504201 72.15258789 34.25170898 C72.17573286 35.86651549 72.19015543 37.48147221 72.19555664 39.09643555 C72.20487274 41.42331148 72.24591368 43.74783676 72.29296875 46.07421875 C72.2890361 46.79212082 72.28510345 47.51002289 72.28105164 48.24967957 C72.39474675 52.18744764 72.88021067 53.85477554 75.41918945 56.93286133 C79.34815358 60.0798237 81.32286908 60.12016726 86.3203125 60.09765625 C88.20556641 60.09282227 88.20556641 60.09282227 90.12890625 60.08789062 C91.44761719 60.07951172 92.76632812 60.07113281 94.125 60.0625 C95.46484211 60.05748489 96.804686 60.05292201 98.14453125 60.04882812 C101.42973206 60.03701086 104.71484397 60.02053617 108 60 C107.51273437 58.8346875 107.02546875 57.669375 106.5234375 56.46875 C103.73960751 49.01897176 103.64233886 39.84263697 106.3125 32.3125 C108.94570928 27.14360771 108.94570928 27.14360771 111 25 C111.66 25 112.32 25 113 25 C113 24.34 113 23.68 113 23 C121.01931355 18.8080861 129.258695 17.41928021 138.265625 19.53125 C142.57660685 21.25564274 145.91441076 23.82882153 148 28 C148.375 30.875 148.375 30.875 148 34 C145.52419615 36.75875286 144.10299301 37.92121479 140.375 38.1875 C136.84238993 36.42119496 136.49516189 33.55100949 135 30 C131.96795952 27.97863968 130.1495642 27.99732921 126.5 28.0625 C122.27501945 29.19419122 120.65764682 30.56069236 118 34 C115.94597196 39.53007549 116.48944263 46.70249184 117.75 52.375 C119.1426944 55.29965825 120.46599189 56.98769945 123 59 C125.98862902 59.96956593 128.78479426 60.1459803 131.9140625 60.2109375 C133.30238281 60.25347656 133.30238281 60.25347656 134.71875 60.296875 C136.66386352 60.349163 138.60921023 60.39337192 140.5546875 60.4296875 C141.93914062 60.47609375 141.93914062 60.47609375 143.3515625 60.5234375 C144.19541504 60.54325684 145.03926758 60.56307617 145.90869141 60.58349609 C146.59882324 60.72094238 147.28895508 60.85838867 148 61 C150 64 150 64 149.6875 66.625 C149 69 149 69 148 70 C145.79816188 70.11018169 143.59274419 70.14914564 141.38818359 70.16113281 C140.69702454 70.16609772 140.00586548 70.17106262 139.29376221 70.17617798 C136.99531065 70.19084252 134.69692826 70.19761102 132.3984375 70.203125 C130.80237831 70.20887588 129.20631915 70.21463362 127.61026001 70.22039795 C124.25595782 70.23092215 120.90167967 70.23675453 117.54736328 70.24023438 C113.26010547 70.24570178 108.97316806 70.26968587 104.68601036 70.29820633 C101.38476659 70.31688789 98.08359883 70.32204138 94.78230667 70.32357025 C93.20273728 70.32658826 91.62316897 70.33458795 90.04365158 70.34775543 C87.82492012 70.36492096 85.60695557 70.36290986 83.38818359 70.35644531 C81.49741592 70.36191376 81.49741592 70.36191376 79.56845093 70.36749268 C75.42857469 69.94115244 72.72004356 68.80933485 69 67 C69 66.34 69 65.68 69 65 C66.25296693 66.08216454 63.62903675 67.19172023 61.00219727 68.54931641 C56.12435616 70.6313674 51.25642434 70.43035199 46.02734375 70.3984375 C44.98606827 70.40130768 43.94479279 70.40417786 42.8719635 70.40713501 C40.67920383 70.40916921 38.48642575 70.40368458 36.29370117 70.39111328 C32.94473613 70.37503474 29.59697492 70.39099284 26.24804688 70.41015625 C24.11197651 70.40817402 21.9759069 70.40433077 19.83984375 70.3984375 C18.84282944 70.40451019 17.84581512 70.41058289 16.81858826 70.4168396 C11.42940083 70.36250536 7.67858054 69.96923149 3 67 C2.113125 66.443125 1.22625 65.88625 0.3125 65.3125 C-4.47577872 60.52422128 -5.33302472 54.52099457 -5.41540527 48.02207947 C-5.41238403 47.18850418 -5.40936279 46.35492889 -5.40625 45.49609375 C-5.41708618 44.6139772 -5.42792236 43.73186066 -5.43908691 42.82301331 C-5.48458798 39.08396351 -5.49640102 35.34498959 -5.51123047 31.60571289 C-5.52698917 28.86059411 -5.55999364 26.11604089 -5.59375 23.37109375 C-5.59072876 22.53549423 -5.58770752 21.69989471 -5.58459473 20.838974 C-5.67940355 13.38916294 -7.98993293 8.30153397 -12 2 C-7.97297355 -0.6846843 -4.7286041 -0.5643542 0 0 Z " fill="#808184" transform="translate(242,216)"/>
<path d="M0 0 C4.69028987 4.81055371 5.12439259 8.52381513 5.09765625 15.07421875 C5.0962413 15.7580513 5.09482635 16.44188385 5.09336853 17.1464386 C5.08777876 19.32683722 5.07522822 21.50713251 5.0625 23.6875 C5.05748367 25.16731622 5.052921 26.64713406 5.04882812 28.12695312 C5.03781271 31.75133557 5.02055512 35.3756577 5 39 C8.52173396 38.91845544 12.04181983 38.80567356 15.5625 38.6875 C16.55314453 38.66494141 17.54378906 38.64238281 18.56445312 38.61914062 C24.38169395 38.40655043 28.93945855 37.99279333 34 35 C37.83996309 29.32401958 37.66072847 21.80469478 36.53125 15.30078125 C35.19687614 9.478781 33.45842323 5.57054769 29.20703125 1.33984375 C28 0 28 0 28 -2 C31.71917934 -3.85958967 36.28474888 -3.42881278 40.25 -2.4375 C43.00730468 -0.17257115 44.48854493 2.83102487 46 6 C46.3609375 6.68835938 46.721875 7.37671875 47.09375 8.0859375 C48.45885294 12.47544954 48.36862071 16.74173532 48.375 21.3125 C48.39949219 22.22451172 48.42398438 23.13652344 48.44921875 24.07617188 C48.48234263 31.77747399 46.56189296 36.88418423 41.6875 42.8125 C34.66256366 48.53047144 28.09885443 48.44410482 19.34765625 48.3984375 C18.13355576 48.40130768 16.91945526 48.40417786 15.66856384 48.40713501 C13.1075697 48.40917147 10.54655986 48.40367097 7.9855957 48.39111328 C4.07923349 48.37506873 0.17390812 48.39097019 -3.73242188 48.41015625 C-6.22656477 48.40817347 -8.72070702 48.40432909 -11.21484375 48.3984375 C-12.95736671 48.40754654 -12.95736671 48.40754654 -14.73509216 48.4168396 C-21.20574019 48.36110957 -26.10519543 47.71652881 -32 45 C-32 44.34 -32 43.68 -32 43 C-32.5775 42.79375 -33.155 42.5875 -33.75 42.375 C-37.81955293 39.88805099 -39.54745975 36.15397763 -41.25 31.8125 C-43.01850214 22.82261411 -42.84865376 13.83542192 -37.67578125 5.9921875 C-29.0859487 -4.7845578 -11.83809061 -6.35749311 0 0 Z M-26 8 C-30.95199366 14.42420799 -31.94339905 20.05159188 -31 28 C-29.3256644 32.60254585 -27.0588895 35.29407366 -23 38 C-19.44995365 39.24879949 -15.98348416 39.09983484 -12.25 39.0625 C-11.07953125 39.05347656 -9.9090625 39.04445313 -8.703125 39.03515625 C-7.81109375 39.02355469 -6.9190625 39.01195312 -6 39 C-5.87636773 34.64015539 -5.78565092 30.28123945 -5.7253418 25.92016602 C-5.7002019 24.43691232 -5.66608408 22.95378247 -5.62280273 21.47094727 C-5.56211742 19.33839405 -5.53378884 17.20747795 -5.51171875 15.07421875 C-5.48553467 13.79119873 -5.45935059 12.50817871 -5.43237305 11.1862793 C-5.66880006 7.83475192 -5.66880006 7.83475192 -8.39013672 6.08276367 C-14.43774112 3.57377157 -20.6208275 4.24708895 -26 8 Z " fill="#828386" transform="translate(183,238)"/>
<path d="M0 0 C7.25083458 5.39596992 9.79059223 13.95604747 11.45703125 22.5 C13.99353884 40.47775958 13.53505036 60.31366187 4.34375 76.3984375 C2.16589334 78.99413875 -0.15659343 79.84861933 -3.4375 80.4375 C-7.25607533 79.78554811 -8.55627732 77.94499913 -11 75 C-17.87307607 65.09468449 -18.51705179 53.47408298 -18.44604492 41.76464844 C-18.43753506 39.63378013 -18.4664115 37.50560578 -18.49804688 35.375 C-18.56026627 23.57308864 -17.043079 12.86331933 -10 3 C-9.3503125 2.071875 -9.3503125 2.071875 -8.6875 1.125 C-5.74499345 -0.83667103 -3.41347771 -0.47082451 0 0 Z " fill="#FAD993" transform="translate(263,59)"/>
<path d="M0 0 C3.23861655 2.81248279 4.81460852 4.57866534 5.375 8.875 C5 12 5 12 2.8125 14.4375 C0 16 0 16 -2.625 16.1875 C-6.15761007 14.42119496 -6.50483811 11.55100949 -8 8 C-11.03204048 5.97863968 -12.8504358 5.99732921 -16.5 6.0625 C-20.72498055 7.19419122 -22.34235318 8.56069236 -25 12 C-26.14722956 16.19151194 -26.31030467 20.49210453 -26.5625 24.8125 C-26.60568359 25.50537109 -26.64886719 26.19824219 -26.69335938 26.91210938 C-26.79861453 28.60788686 -26.89972863 30.30392052 -27 32 C-28.32 31.01 -29.64 30.02 -31 29 C-31.99 30.98 -32.98 32.96 -34 35 C-34.66 35 -35.32 35 -36 35 C-39.2326486 28.26424216 -39.00639687 19.6183966 -37.4296875 12.3828125 C-36.1804648 8.89813865 -34.57057019 5.68233412 -32 3 C-31.34 3 -30.68 3 -30 3 C-30 2.34 -30 1.68 -30 1 C-20.70007577 -3.86132403 -9.41808308 -5.6107729 0 0 Z " fill="#838487" transform="translate(385,238)"/>
<path d="M0 0 C1.17949219 0.01804687 2.35898438 0.03609375 3.57421875 0.0546875 C4.92966797 0.08949219 4.92966797 0.08949219 6.3125 0.125 C5.3125 3.125 5.3125 3.125 3.3125 4.125 C0.6401379 4.25915472 -2.01000488 4.16818541 -4.6875 4.125 C-4.6875 4.785 -4.6875 5.445 -4.6875 6.125 C-4.06101562 6.17398437 -3.43453125 6.22296875 -2.7890625 6.2734375 C-1.97179687 6.34820312 -1.15453125 6.42296875 -0.3125 6.5 C0.90566406 6.60441406 0.90566406 6.60441406 2.1484375 6.7109375 C4.3125 7.125 4.3125 7.125 6.3125 9.125 C5.9375 12.75 5.9375 12.75 5.3125 16.125 C-0.50222706 16.87068619 -6.19272649 17.26796395 -12.05297852 17.23852539 C-12.8345784 17.23867142 -13.61617828 17.23881744 -14.42146301 17.2389679 C-16.96980703 17.23827883 -19.51807522 17.23053427 -22.06640625 17.22265625 C-23.84716248 17.22078849 -25.62791922 17.21936628 -27.40867615 17.21836853 C-32.06927945 17.21457157 -36.72985103 17.20476572 -41.39044189 17.19366455 C-46.15677461 17.18338943 -50.9231125 17.1788579 -55.68945312 17.17382812 C-65.02214927 17.16314063 -74.35482198 17.14609853 -83.6875 17.125 C-84.0175 18.775 -84.3475 20.425 -84.6875 22.125 C-86.3375 22.455 -87.9875 22.785 -89.6875 23.125 C-89.5225 22.01125 -89.3575 20.8975 -89.1875 19.75 C-88.64453465 15.57734844 -88.68285735 11.5232946 -88.84765625 7.32421875 C-88.6875 5.125 -88.6875 5.125 -86.6875 2.125 C-85.6975 2.455 -84.7075 2.785 -83.6875 3.125 C-83.6875 6.425 -83.6875 9.725 -83.6875 13.125 C-61.5775 12.795 -39.4675 12.465 -16.6875 12.125 C-16.3575 9.155 -16.0275 6.185 -15.6875 3.125 C-14.3675 3.125 -13.0475 3.125 -11.6875 3.125 C-11.1925 7.58 -11.1925 7.58 -10.6875 12.125 C-6.7275 12.455 -2.7675 12.785 1.3125 13.125 C1.3125 12.465 1.3125 11.805 1.3125 11.125 C-0.0178125 11.2178125 -0.0178125 11.2178125 -1.375 11.3125 C-5.13452321 11.0996968 -6.8644966 10.61588536 -9.6875 8.125 C-10.1875 5.0625 -10.1875 5.0625 -9.6875 2.125 C-6.05554504 -0.29630331 -4.30400652 -0.08522785 0 0 Z " fill="#99999B" transform="translate(231.6875,306.875)"/>
<path d="M0 0 C2.05859375 0.43359375 2.05859375 0.43359375 4.05859375 3.43359375 C2.91390625 3.65015625 2.91390625 3.65015625 1.74609375 3.87109375 C-1.02313533 4.39685315 -1.02313533 4.39685315 -3.94140625 5.43359375 C-3.94140625 7.74359375 -3.94140625 10.05359375 -3.94140625 12.43359375 C-2.66265625 12.33046875 -1.38390625 12.22734375 -0.06640625 12.12109375 C0.65289062 12.06308594 1.3721875 12.00507813 2.11328125 11.9453125 C4.45378591 11.55966339 4.45378591 11.55966339 6.05859375 8.43359375 C8.00390625 7.921875 8.00390625 7.921875 10.18359375 7.74609375 C11.46234375 7.64296875 12.74109375 7.53984375 14.05859375 7.43359375 C13.72859375 6.11359375 13.39859375 4.79359375 13.05859375 3.43359375 C12.19234375 3.95953125 12.19234375 3.95953125 11.30859375 4.49609375 C8.70057599 5.58276782 7.66441746 5.36424508 5.05859375 4.43359375 C5.71859375 3.11359375 6.37859375 1.79359375 7.05859375 0.43359375 C8.51652259 0.37959639 9.97502087 0.34080198 11.43359375 0.30859375 C12.24570312 0.28539062 13.0578125 0.2621875 13.89453125 0.23828125 C16.05859375 0.43359375 16.05859375 0.43359375 18.05859375 2.43359375 C19.13019363 5.5338198 19.16399055 8.42343704 19.12109375 11.68359375 C19.11207031 12.575625 19.10304688 13.46765625 19.09375 14.38671875 C19.08214844 15.0621875 19.07054687 15.73765625 19.05859375 16.43359375 C17.31040784 16.65663816 15.55989052 16.86145825 13.80859375 17.05859375 C12.8340625 17.17460937 11.85953125 17.290625 10.85546875 17.41015625 C7.88050409 17.43508612 6.61518098 16.8153816 4.05859375 15.43359375 C3.29546875 15.74296875 2.53234375 16.05234375 1.74609375 16.37109375 C-1.94708829 17.83118897 -4.15684308 17.5549458 -7.94140625 16.43359375 C-10.33818966 13.21291604 -10.97679828 11.31839461 -10.81640625 7.30859375 C-8.80408203 0.69667131 -6.62785609 -0.01088318 0 0 Z M9.05859375 11.43359375 C9.05859375 12.09359375 9.05859375 12.75359375 9.05859375 13.43359375 C10.70859375 13.10359375 12.35859375 12.77359375 14.05859375 12.43359375 C14.05859375 11.77359375 14.05859375 11.11359375 14.05859375 10.43359375 C11.84777524 10.32818449 11.84777524 10.32818449 9.05859375 11.43359375 Z " fill="#87898C" transform="translate(342.94140625,306.56640625)"/>
<path d="M0 0 C0.99 0.66 1.98 1.32 3 2 C3.53625 1.484375 4.0725 0.96875 4.625 0.4375 C7 -1 7 -1 10.0625 -0.875 C14.3960396 0.41584158 14.3960396 0.41584158 16 3 C16.42030443 6.29238472 16.295454 8.33957342 14.9375 11.375 C13 13 13 13 9.5625 13.4375 C5.95853694 12.99490804 4.56984291 12.46704919 2 10 C1.62875 10.495 1.2575 10.99 0.875 11.5 C-1 13 -1 13 -3.9375 13.4375 C-7 13 -7 13 -9.4375 11.4375 C-11 9 -11 9 -11 5.4375 C-10 2 -10 2 -8.3125 0 C-5.15411416 -1.36578847 -3.27700161 -0.9064047 0 0 Z " fill="#8A8A8E" transform="translate(204,292)"/>
<path d="M0 0 C1.875 1.5 1.875 1.5 3 3 C3.515625 2.505 4.03125 2.01 4.5625 1.5 C7.91034349 -0.56021138 10.14014247 -0.49125459 14 0 C16.66266871 2.23320602 16.95347082 3.6200117 17.375 7.0625 C17 10 17 10 16 11.875 C12.80290713 13.67336474 9.57619197 13.58113119 6 13 C4 11.5 4 11.5 3 10 C2.01 11.485 2.01 11.485 1 13 C-5.97674419 13.7751938 -5.97674419 13.7751938 -9.0625 11.4375 C-10.40411569 7.9492992 -9.92678615 5.57474656 -9 2 C-5.53076119 -0.31282587 -4.07794425 -0.42478586 0 0 Z " fill="#828386" transform="translate(166,216)"/>
<path d="M0 0 C0.99 0.33 1.98 0.66 3 1 C3 4.3 3 7.6 3 11 C25.11 10.67 47.22 10.34 70 10 C70.33 7.03 70.66 4.06 71 1 C71.99 0.67 72.98 0.34 74 0 C74 1.32 74 2.64 74 4 C73.34 4 72.68 4 72 4 C72.495 6.97 72.495 6.97 73 10 C69.0975299 12.73644186 66.48159426 13.36954131 61.7409668 13.34057617 C60.48280151 13.34021362 59.22463623 13.33985107 57.92834473 13.33947754 C56.61523315 13.32412964 55.30212158 13.30878174 53.94921875 13.29296875 C52.12855896 13.28843689 52.12855896 13.28843689 50.27111816 13.28381348 C45.74315877 13.26813407 41.21532072 13.22625013 36.6875 13.1875 C26.560625 13.125625 16.43375 13.06375 6 13 C27.45 13.33 48.9 13.66 71 14 C71 14.33 71 14.66 71 15 C48.56 15 26.12 15 3 15 C2.67 16.65 2.34 18.3 2 20 C0.35 20.33 -1.3 20.66 -3 21 C-2.835 19.88625 -2.67 18.7725 -2.5 17.625 C-1.95703465 13.45234844 -1.99535735 9.3982946 -2.16015625 5.19921875 C-2 3 -2 3 0 0 Z " fill="#979797" transform="translate(145,309)"/>
<path d="M0 0 C1.98 0 3.96 0 6 0 C6.06058594 0.77085937 6.12117188 1.54171875 6.18359375 2.3359375 C6.26738281 3.33882813 6.35117187 4.34171875 6.4375 5.375 C6.51871094 6.37273437 6.59992188 7.37046875 6.68359375 8.3984375 C6.84965626 10.97927613 6.84965626 10.97927613 8 13 C8.99 12.67 9.98 12.34 11 12 C11.33 8.04 11.66 4.08 12 0 C13.32 0 14.64 0 16 0 C16.08733513 3.08315385 16.14050127 6.16598827 16.1875 9.25 C16.21263672 10.12269531 16.23777344 10.99539063 16.26367188 11.89453125 C16.33757124 18.348409 16.33757124 18.348409 14.65625 21.59375 C13 23 13 23 10.3125 23.25 C9.549375 23.1675 8.78625 23.085 8 23 C7.67 22.01 7.34 21.02 7 20 C7.639375 19.71125 8.27875 19.4225 8.9375 19.125 C11.15206079 18.17176549 11.15206079 18.17176549 12 16 C11.2575 16.20625 10.515 16.4125 9.75 16.625 C6.65256571 17.0473774 5.54868779 16.72946672 3 15 C1.67770811 12.35541621 1.90322806 10.32238699 1.9375 7.375 C1.94652344 6.37210937 1.95554687 5.36921875 1.96484375 4.3359375 C1.98224609 3.17964844 1.98224609 3.17964844 2 2 C1.34 2 0.68 2 0 2 C0 1.34 0 0.68 0 0 Z " fill="#919194" transform="translate(296,307)"/>
<path d="M0 0 C1.62463842 -0.05395478 3.24978541 -0.09277195 4.875 -0.125 C5.77992188 -0.14820313 6.68484375 -0.17140625 7.6171875 -0.1953125 C10 0 10 0 12 2 C13.3836233 6.56595691 13.09258472 11.27817937 13 16 C10.42121756 17.28939122 8.85485837 16.96551673 6 16.6875 C4.6696875 16.56955078 4.6696875 16.56955078 3.3125 16.44921875 C1 16 1 16 -1 14 C-1.25 11 -1.25 11 -1 8 C-0.34 7.34 0.32 6.68 1 6 C0.649375 5.38125 0.29875 4.7625 -0.0625 4.125 C-0.371875 3.42375 -0.68125 2.7225 -1 2 C-0.67 1.34 -0.34 0.68 0 0 Z M5 2 C4.01 2.495 4.01 2.495 3 3 C3 3.66 3 4.32 3 5 C4.65 5 6.3 5 8 5 C7.01 4.01 6.02 3.02 5 2 Z M4 9 C4 10.32 4 11.64 4 13 C5.32 13 6.64 13 8 13 C8 11.68 8 10.36 8 9 C6.68 9 5.36 9 4 9 Z " fill="#959596" transform="translate(314,307)"/>
<path d="M0 0 C2 1.125 2 1.125 3 3 C3.1875 6.1875 3.1875 6.1875 3 9 C-0.3 9 -3.6 9 -7 9 C-6.67 9.99 -6.34 10.98 -6 12 C-3.03 12 -0.06 12 3 12 C2.67 13.32 2.34 14.64 2 16 C-5.2238041 17.34681093 -5.2238041 17.34681093 -8.9375 15.6875 C-11 14 -11 14 -12 12 C-12.56872038 4.9478673 -12.56872038 4.9478673 -10.5 1.5 C-6.74351164 -0.75389302 -4.35420619 -0.48380069 0 0 Z M-5 3 C-5.99 4.485 -5.99 4.485 -7 6 C-5.02 6 -3.04 6 -1 6 C-1.66 5.01 -2.32 4.02 -3 3 C-3.66 3 -4.32 3 -5 3 Z " fill="#7A8085" transform="translate(387,307)"/>
<path d="M0 0 C3.9375 0.5 3.9375 0.5 5.875 1.6875 C7.20350065 3.95376582 7.663343 5.8955085 7.9375 8.5 C6.9375 9.5 6.9375 9.5 4.43359375 9.59765625 C2.91958984 9.58025391 2.91958984 9.58025391 1.375 9.5625 C0.36308594 9.55347656 -0.64882813 9.54445313 -1.69140625 9.53515625 C-2.86509766 9.51775391 -2.86509766 9.51775391 -4.0625 9.5 C-3.27132096 11.49983534 -3.27132096 11.49983534 -2.0625 13.5 C-1.0725 13.83 -0.0825 14.16 0.9375 14.5 C1.9275 13.18 2.9175 11.86 3.9375 10.5 C4.9275 10.83 5.9175 11.16 6.9375 11.5 C6.5625 13.9375 6.5625 13.9375 5.9375 16.5 C2.72908965 18.10420518 -0.5818987 17.97462745 -4.0625 17.5 C-6.5625 16 -6.5625 16 -8.0625 13.5 C-8.64901804 8.88117047 -8.63592659 6.64685318 -6.5625 2.5 C-3.93189611 0.39551688 -3.21624106 0.1421543 0 0 Z M-2.0625 3.5 C-2.3925 4.49 -2.7225 5.48 -3.0625 6.5 C-1.0825 6.5 0.8975 6.5 2.9375 6.5 C2.6075 5.51 2.2775 4.52 1.9375 3.5 C0.6175 3.5 -0.7025 3.5 -2.0625 3.5 Z " fill="#7D7C7F" transform="translate(259.0625,306.5)"/>
<path d="M0 0 C1.20462891 -0.02126953 1.20462891 -0.02126953 2.43359375 -0.04296875 C4.5625 0.1875 4.5625 0.1875 6.5625 2.1875 C6.70747985 4.76814129 6.74927545 7.23693884 6.6875 9.8125 C6.67847656 10.51890625 6.66945313 11.2253125 6.66015625 11.953125 C6.63657603 13.69806098 6.60070461 15.44282295 6.5625 17.1875 C-1.44110036 17.64924617 -1.44110036 17.64924617 -5 16 C-6.4375 14.1875 -6.4375 14.1875 -6.8125 11.6875 C-6.4375 9.1875 -6.4375 9.1875 -4.4375 6.1875 C-4.71692455 4.51095271 -5.04578247 2.84141846 -5.4375 1.1875 C-3.84855928 -0.40144072 -2.18948576 0.01751589 0 0 Z M-1.4375 3.1875 C-1.4375 3.8475 -1.4375 4.5075 -1.4375 5.1875 C-0.1175 5.1875 1.2025 5.1875 2.5625 5.1875 C2.5625 4.5275 2.5625 3.8675 2.5625 3.1875 C1.2425 3.1875 -0.0775 3.1875 -1.4375 3.1875 Z M-1.4375 9.1875 C-1.7675 10.1775 -2.0975 11.1675 -2.4375 12.1875 C0.0375 13.1775 0.0375 13.1775 2.5625 14.1875 C2.5625 12.5375 2.5625 10.8875 2.5625 9.1875 C1.2425 9.1875 -0.0775 9.1875 -1.4375 9.1875 Z " fill="#838385" transform="translate(289.4375,306.8125)"/>
<path d="M0 0 C2.12472576 -0.05386629 4.24983652 -0.09273071 6.375 -0.125 C7.55835938 -0.14820313 8.74171875 -0.17140625 9.9609375 -0.1953125 C13 0 13 0 15 2 C15.4657363 4.55867474 15.83484248 7.04687908 16.125 9.625 C16.21136719 10.33140625 16.29773438 11.0378125 16.38671875 11.765625 C16.59881183 13.50950141 16.80040991 15.2546484 17 17 C15.02 16.67 13.04 16.34 11 16 C11 11.71 11 7.42 11 3 C9.68 3.33 8.36 3.66 7 4 C6.67 8.29 6.34 12.58 6 17 C4.68 17 3.36 17 2 17 C1.93941406 16.02417969 1.87882812 15.04835938 1.81640625 14.04296875 C1.73261719 12.77066406 1.64882813 11.49835938 1.5625 10.1875 C1.48128906 8.92292969 1.40007812 7.65835937 1.31640625 6.35546875 C1.12815453 3.00818107 1.12815453 3.00818107 0 0 Z " fill="#7D7D80" transform="translate(266,307)"/>
<path d="M0 0 C0.33 0 0.66 0 1 0 C1.08086147 1.79093191 1.13912702 3.58289628 1.1875 5.375 C1.23970703 6.87160156 1.23970703 6.87160156 1.29296875 8.3984375 C1.19628906 9.25695312 1.09960938 10.11546875 1 11 C-2.64381288 13.42920859 -4.33612445 13.24285565 -8.67456055 13.22705078 C-9.347995 13.22734283 -10.02142944 13.22763489 -10.715271 13.22793579 C-12.93921839 13.22654344 -15.16282995 13.21098703 -17.38671875 13.1953125 C-18.92942624 13.19158203 -20.4721361 13.18873522 -22.0148468 13.18673706 C-26.07388864 13.17910329 -30.1327872 13.15945706 -34.19177246 13.1373291 C-38.3342088 13.11686512 -42.4766683 13.10773416 -46.61914062 13.09765625 C-54.74615948 13.07621088 -62.87306191 13.04207808 -71 13 C-67.49905757 10.66603838 -66.16350701 10.76471584 -62.03149414 10.8046875 C-60.18927025 10.81459717 -60.18927025 10.81459717 -58.30982971 10.82470703 C-57.32631122 10.8370639 -57.32631122 10.8370639 -56.32292366 10.84967041 C-54.2674406 10.87522021 -52.21221596 10.8882342 -50.15660095 10.89794922 C-45.05114425 10.9246807 -39.94593333 10.97306905 -34.84063721 11.02075195 C-30.52643147 11.06023037 -26.21231737 11.09150606 -21.89797783 11.11187744 C-19.87485678 11.12482591 -17.85211359 11.14984219 -15.82911682 11.17529297 C-14.5978154 11.18189941 -13.36651398 11.18850586 -12.09790039 11.1953125 C-10.47266197 11.21102295 -10.47266197 11.21102295 -8.81459045 11.22705078 C-6.00993688 11.0008016 -4.37936176 10.45181548 -2 9 C-2 7.02 -2 5.04 -2 3 C-1.34 3 -0.68 3 0 3 C0 2.01 0 1.02 0 0 Z " fill="#78787A" transform="translate(219,310)"/>
<path d="M0 0 C2.36002096 1.54622063 2.90125807 2.7319862 3.875 5.375 C4 8 4 8 3.0625 10.8125 C0.74343485 13.27211455 0.22989404 13.39594929 -3 13.5625 C-5.798336 13.36666802 -6.78037784 13.16638042 -9.0625 11.4375 C-10.40411569 7.9492992 -9.92678615 5.57474656 -9 2 C-5.53076119 -0.31282587 -4.07794425 -0.42478586 0 0 Z " fill="#88898C" transform="translate(312,216)"/>
<path d="M0 0 C0.66 0.33 1.32 0.66 2 1 C3.15754821 39.89361987 3.15754821 39.89361987 -7 52 C-10.11157606 53.88155969 -12.35520423 54.46728151 -16 54 C-17.8125 52.5 -17.8125 52.5 -19 51 C-16.69 50.34 -14.38 49.68 -12 49 C-12 49.66 -12 50.32 -12 51 C-11.01 51 -10.02 51 -9 51 C-8.731875 50.195625 -8.46375 49.39125 -8.1875 48.5625 C-7.795625 47.716875 -7.40375 46.87125 -7 46 C-5.515 45.505 -5.515 45.505 -4 45 C-3.22259055 43.20347643 -3.22259055 43.20347643 -2.875 41 C-2.72804688 40.278125 -2.58109375 39.55625 -2.4296875 38.8125 C-1.11305044 30.19451199 -0.71980709 21.64273989 -0.4375 12.9375 C-0.39431641 11.69033203 -0.35113281 10.44316406 -0.30664062 9.15820312 C-0.20137704 6.10555909 -0.09924059 3.05284477 0 0 Z " fill="#F5E1B3" transform="translate(273,85)"/>
<path d="M0 0 C1.51400391 0.01740234 1.51400391 0.01740234 3.05859375 0.03515625 C4.07050781 0.04417969 5.08242188 0.05320312 6.125 0.0625 C7.29869141 0.07990234 7.29869141 0.07990234 8.49609375 0.09765625 C8.49609375 1.41765625 8.49609375 2.73765625 8.49609375 4.09765625 C6.84609375 4.42765625 5.19609375 4.75765625 3.49609375 5.09765625 C3.16609375 8.72765625 2.83609375 12.35765625 2.49609375 16.09765625 C0.51609375 16.09765625 -1.46390625 16.09765625 -3.50390625 16.09765625 C-3.5307572 13.61841824 -3.55067172 11.13946785 -3.56640625 8.66015625 C-3.57897461 7.59958008 -3.57897461 7.59958008 -3.59179688 6.51757812 C-3.60044213 4.71072066 -3.55610636 2.90378022 -3.50390625 1.09765625 C-2.50390625 0.09765625 -2.50390625 0.09765625 0 0 Z " fill="#95959A" transform="translate(366.50390625,306.90234375)"/>
<path d="M0 0 C1.17949219 0.01804687 2.35898438 0.03609375 3.57421875 0.0546875 C4.92966797 0.08949219 4.92966797 0.08949219 6.3125 0.125 C5.3125 3.125 5.3125 3.125 3.3125 4.125 C1.77226004 4.19450541 0.22915012 4.20952357 -1.3125 4.1875 C-2.53839844 4.17396484 -2.53839844 4.17396484 -3.7890625 4.16015625 C-4.72878906 4.14275391 -4.72878906 4.14275391 -5.6875 4.125 C-5.6875 5.115 -5.6875 6.105 -5.6875 7.125 C-3.7075 7.125 -1.7275 7.125 0.3125 7.125 C0.3125 8.115 0.3125 9.105 0.3125 10.125 C-6.3125 10.375 -6.3125 10.375 -9.6875 8.125 C-10.0625 5.125 -10.0625 5.125 -9.6875 2.125 C-6.05554504 -0.29630331 -4.30400652 -0.08522785 0 0 Z " fill="#8F8F91" transform="translate(231.6875,306.875)"/>
<path d="M0 0 C0.66 0 1.32 0 2 0 C2 1.32 2 2.64 2 4 C1.34 4 0.68 4 0 4 C0.495 6.97 0.495 6.97 1 10 C-2.97311379 12.81208849 -5.60712689 13.35369153 -10.44262695 13.2487793 C-11.72357742 13.22853195 -13.00452789 13.20828461 -14.32429504 13.18742371 C-15.7122994 13.15001958 -17.10029467 13.11227671 -18.48828125 13.07421875 C-19.91600508 13.04616534 -21.34375633 13.0194771 -22.77153015 12.99409485 C-26.51850227 12.92382919 -30.26481499 12.83508268 -34.0112915 12.74243164 C-37.83868183 12.65106885 -41.66640665 12.5772583 -45.49414062 12.50195312 C-52.99653001 12.35177497 -60.49830946 12.18206387 -68 12 C-68 11.67 -68 11.34 -68 11 C-46.22 10.67 -24.44 10.34 -2 10 C-1.67 7.03 -1.34 4.06 -1 1 C-0.67 0.67 -0.34 0.34 0 0 Z " fill="#858586" transform="translate(217,309)"/>
<path d="M0 0 C2.05859375 0.43359375 2.05859375 0.43359375 4.05859375 3.43359375 C2.91390625 3.65015625 2.91390625 3.65015625 1.74609375 3.87109375 C-1.02313533 4.39685315 -1.02313533 4.39685315 -3.94140625 5.43359375 C-3.94140625 8.07359375 -3.94140625 10.71359375 -3.94140625 13.43359375 C-4.93140625 13.10359375 -5.92140625 12.77359375 -6.94140625 12.43359375 C-6.94140625 13.09359375 -6.94140625 13.75359375 -6.94140625 14.43359375 C-7.27140625 15.09359375 -7.60140625 15.75359375 -7.94140625 16.43359375 C-9.87697399 13.18183995 -10.9695112 11.13621746 -10.81640625 7.30859375 C-8.80408203 0.69667131 -6.62785609 -0.01088318 0 0 Z " fill="#94979D" transform="translate(342.94140625,306.56640625)"/>
<path d="M0 0 C0.90492188 0.02320313 1.80984375 0.04640625 2.7421875 0.0703125 C4.10730469 0.09738281 4.10730469 0.09738281 5.5 0.125 C6.19867188 0.14820313 6.89734375 0.17140625 7.6171875 0.1953125 C7.6171875 2.52864583 7.6171875 4.86197917 7.6171875 7.1953125 C5.99304372 7.39008989 4.36782327 7.57590708 2.7421875 7.7578125 C1.83726562 7.86222656 0.93234375 7.96664062 0 8.07421875 C-2.3828125 8.1953125 -2.3828125 8.1953125 -4.3828125 7.1953125 C-4.5078125 4.8203125 -4.5078125 4.8203125 -4.3828125 2.1953125 C-2.3828125 0.1953125 -2.3828125 0.1953125 0 0 Z " fill="#78797C" transform="translate(163.3828125,234.8046875)"/>
<path d="M0 0 C0 3.42085146 -0.78105603 5.81720186 -2 9 C-2.66 9.66 -3.32 10.32 -4 11 C-4.99 11 -5.98 11 -7 11 C-7.1546875 12.1446875 -7.1546875 12.1446875 -7.3125 13.3125 C-8.06799155 16.26578515 -8.86992523 16.95867834 -11 19 C-11.71447643 21.10332891 -11.71447643 21.10332891 -12 23 C-12.66 23 -13.32 23 -14 23 C-14 23.66 -14 24.32 -14 25 C-14.99 25 -15.98 25 -17 25 C-15.45262907 20.42704346 -13.00531581 16.91780322 -10.1875 13.0625 C-9.76146484 12.46759766 -9.33542969 11.87269531 -8.89648438 11.25976562 C-6.08353899 7.36590023 -3.11172048 3.65920451 0 0 Z " fill="#B0D3E9" transform="translate(299,97)"/>
<path d="M0 0 C0.99 0.33 1.98 0.66 3 1 C3.04898438 1.69867188 3.09796875 2.39734375 3.1484375 3.1171875 C3.22320312 4.02726562 3.29796875 4.93734375 3.375 5.875 C3.44460937 6.77992188 3.51421875 7.68484375 3.5859375 8.6171875 C3.79568132 11.17941903 3.79568132 11.17941903 6 13 C2.535 14.485 2.535 14.485 -1 16 C-1.97551509 13.07345473 -2.16478088 11.05345004 -2.1875 8 C-2.20167969 7.13375 -2.21585938 6.2675 -2.23046875 5.375 C-2 3 -2 3 0 0 Z " fill="#929294" transform="translate(145,309)"/>
<path d="M0 0 C0.66 0 1.32 0 2 0 C4.74165647 11.32515019 3.9594121 22.02773088 0 33 C-0.33 33 -0.66 33 -1 33 C-1.12569815 25.45811085 -1.12569815 25.45811085 -0.5 23.17773438 C0.06376665 20.72226637 0.11301224 18.53400754 0.09765625 16.015625 C0.09443359 15.08105469 0.09121094 14.14648438 0.08789062 13.18359375 C0.07951172 12.21550781 0.07113281 11.24742188 0.0625 10.25 C0.05798828 9.26644531 0.05347656 8.28289062 0.04882812 7.26953125 C0.03706483 4.84629209 0.02062684 2.42317727 0 0 Z " fill="#ADD0E9" transform="translate(352,80)"/>
<path d="M0 0 C1.32 0.66 2.64 1.32 4 2 C4 2.66 4 3.32 4 4 C4.99 3.67 5.98 3.34 7 3 C8.10844919 6.32534757 7.84454356 8.62182575 7 12 C6.67 12 6.34 12 6 12 C5.67 11.01 5.34 10.02 5 9 C4.01 9.66 3.02 10.32 2 11 C0.66666667 9.66666667 -0.66666667 8.33333333 -2 7 C-2.66 7.66 -3.32 8.32 -4 9 C-3.46930939 5.17902761 -2.50298434 2.93828597 0 0 Z " fill="#8A8B8E" transform="translate(352,243)"/>
<path d="M0 0 C1.65 0 3.3 0 5 0 C4.01 0.495 4.01 0.495 3 1 C2.68758629 3.54941373 2.48696579 6.00361513 2.375 8.5625 C2.33632813 9.27341797 2.29765625 9.98433594 2.2578125 10.71679688 C2.16328217 12.47742425 2.08054183 14.23867728 2 16 C0.68 16 -0.64 16 -2 16 C-2.05423638 14.08364783 -2.09289963 12.16685075 -2.125 10.25 C-2.14820313 9.18265625 -2.17140625 8.1153125 -2.1953125 7.015625 C-2.00487687 4.07529894 -1.52670104 2.47638122 0 0 Z " fill="#7B7A7E" transform="translate(270,308)"/>
<path d="M0 0 C0.66 0.66 1.32 1.32 2 2 C2.33 1.34 2.66 0.68 3 0 C3.66 0 4.32 0 5 0 C5.33 0.99 5.66 1.98 6 3 C8.97 3 11.94 3 15 3 C14.67 4.32 14.34 5.64 14 7 C6.86320456 8.33058898 6.86320456 8.33058898 3.0625 6.875 C0.59783451 4.63439501 0.26504773 3.26892205 0 0 Z " fill="#868891" transform="translate(375,316)"/>
<path d="M0 0 C1.98 0 3.96 0 6 0 C6 3.96 6 7.92 6 12 C4.68 12.33 3.36 12.66 2 13 C2 9.37 2 5.74 2 2 C1.34 2 0.68 2 0 2 C0 1.34 0 0.68 0 0 Z " fill="#7C7C7E" transform="translate(296,307)"/>
<path d="M0 0 C0 3.63 0 7.26 0 11 C-1.65 11 -3.3 11 -5 11 C-5 7.7 -5 4.4 -5 1 C-3 0 -3 0 0 0 Z " fill="#737680" transform="translate(368,312)"/>
<path d="M0 0 C2.97 0 5.94 0 9 0 C9.66 1.32 10.32 2.64 11 4 C10.34 4 9.68 4 9 4 C8.67 4.99 8.34 5.98 8 7 C7.34 5.68 6.68 4.36 6 3 C5.4225 3.350625 4.845 3.70125 4.25 4.0625 C1.64198224 5.14917407 0.60582371 4.93065133 -2 4 C-1.34 2.68 -0.68 1.36 0 0 Z " fill="#838387" transform="translate(350,307)"/>
<path d="M0 0 C0.99 0.33 1.98 0.66 3 1 C2.625 3.4375 2.625 3.4375 2 6 C-0.24512262 7.12256131 -1.51456649 7.13413762 -4 7.125 C-5.051875 7.12886719 -5.051875 7.12886719 -6.125 7.1328125 C-8 7 -8 7 -10 6 C-9.34 4.35 -8.68 2.7 -8 1 C-6.35 1.99 -4.7 2.98 -3 4 C-2.01 2.68 -1.02 1.36 0 0 Z " fill="#939394" transform="translate(263,317)"/>
<path d="M0 0 C1.45742463 -0.08096803 2.91612807 -0.13917774 4.375 -0.1875 C5.18710937 -0.22230469 5.99921875 -0.25710938 6.8359375 -0.29296875 C7.55007813 -0.19628906 8.26421875 -0.09960938 9 0 C9.66 0.99 10.32 1.98 11 3 C10.01 3 9.02 3 8 3 C8 3.99 8 4.98 8 6 C4.625 6.625 4.625 6.625 1 7 C0.34 6.34 -0.32 5.68 -1 5 C-0.625 2.375 -0.625 2.375 0 0 Z M3 3 C3 3.66 3 4.32 3 5 C4.32 5 5.64 5 7 5 C7 4.34 7 3.68 7 3 C5.68 3 4.36 3 3 3 Z " fill="#9C9C9E" transform="translate(285,307)"/>
<path d="M0 0 C0.99 0 1.98 0 3 0 C1.57161648 4.06312203 -0.39647042 7.21901829 -2.9375 10.6875 C-3.62714844 11.64011719 -4.31679688 12.59273437 -5.02734375 13.57421875 C-7 16 -7 16 -10 18 C-9.48168678 14.16448215 -8.74372987 12.63398068 -6 10 C-4.80972016 7.40084462 -4.80972016 7.40084462 -4 5 C-3.34 5 -2.68 5 -2 5 C-1.34 3.35 -0.68 1.7 0 0 Z " fill="#B3D5EB" transform="translate(332,146)"/>
<path d="M0 0 C1.8871875 0.061875 1.8871875 0.061875 3.8125 0.125 C3.8125 1.115 3.8125 2.105 3.8125 3.125 C3.1525 3.785 2.4925 4.445 1.8125 5.125 C0.4925 5.125 -0.8275 5.125 -2.1875 5.125 C-1.1975 5.785 -0.2075 6.445 0.8125 7.125 C-0.8375 7.125 -2.4875 7.125 -4.1875 7.125 C-4.5175 6.135 -4.8475 5.145 -5.1875 4.125 C-6.1775 5.115 -7.1675 6.105 -8.1875 7.125 C-7.875 4.75 -7.875 4.75 -7.1875 2.125 C-4.09861478 0.06574319 -3.47814073 -0.1140374 0 0 Z " fill="#8E8E94" transform="translate(383.1875,306.875)"/>
<path d="M0 0 C-0.33 1.65 -0.66 3.3 -1 5 C-1.33 4.34 -1.66 3.68 -2 3 C-3.97536745 3.34786708 -3.97536745 3.34786708 -6 4 C-6.33 4.66 -6.66 5.32 -7 6 C-5.02 6 -3.04 6 -1 6 C-1 6.33 -1 6.66 -1 7 C-7.625 7.125 -7.625 7.125 -11 6 C-11.33 6.66 -11.66 7.32 -12 8 C-11.65447612 5.44312331 -11.24912987 3.42498625 -9.9375 1.1875 C-6.75444301 -0.7634059 -3.67569327 -0.1807718 0 0 Z " fill="#9E9EA0" transform="translate(263,307)"/>
<path d="M0 0 C0.66 0.33 1.32 0.66 2 1 C2.66 0.67 3.32 0.34 4 0 C6.37402501 -0.07116382 8.75000677 -0.08409085 11.125 -0.0625 C12.40632812 -0.05347656 13.68765625 -0.04445313 15.0078125 -0.03515625 C15.99523437 -0.02355469 16.98265625 -0.01195312 18 0 C18 0.33 18 0.66 18 1 C13.71 1 9.42 1 5 1 C4.67 2.65 4.34 4.3 4 6 C2.35 6.33 0.7 6.66 -1 7 C-0.67 4.69 -0.34 2.38 0 0 Z " fill="#A0A0A1" transform="translate(143,323)"/>
<path d="M0 0 C0.66 0 1.32 0 2 0 C2.99 3.63 3.98 7.26 5 11 C4.01 10.67 3.02 10.34 2 10 C2 10.66 2 11.32 2 12 C1.67 12.66 1.34 13.32 1 14 C-1.00012813 10.63978475 -2.05425286 8.70528717 -1.75 4.75 C-1 2 -1 2 0 0 Z " fill="#9F9C9E" transform="translate(334,309)"/>
<path d="M0 0 C0.33 0 0.66 0 1 0 C1.10957031 1.12277344 1.21914063 2.24554688 1.33203125 3.40234375 C2.15155646 11.29886571 3.02822418 18.57056045 6 26 C2.05146443 22.57793584 0.26026676 19.2975231 -0.15673828 14.01416016 C-0.19592426 11.88075622 -0.17514563 9.75811794 -0.125 7.625 C-0.11597656 6.88894531 -0.10695313 6.15289062 -0.09765625 5.39453125 C-0.07430144 3.5962112 -0.03843836 1.79806089 0 0 Z " fill="#B8D8EA" transform="translate(265,163)"/>
<path d="M0 0 C0.33 0 0.66 0 1 0 C1.33 1.65 1.66 3.3 2 5 C4.64 5.33 7.28 5.66 10 6 C10 6.99 10 7.98 10 9 C4.375 10.125 4.375 10.125 1 9 C-0.25 5.5625 -0.25 5.5625 -1 2 C-0.67 1.34 -0.34 0.68 0 0 Z " fill="#7B7B7E" transform="translate(335,314)"/>
<path d="M0 0 C1.32 0 2.64 0 4 0 C4.05422947 1.4370809 4.09289723 2.87475462 4.125 4.3125 C4.14820313 5.11300781 4.17140625 5.91351563 4.1953125 6.73828125 C4 9 4 9 2 12 C-0.13586678 8.79619983 -0.23132175 7.98060033 -0.125 4.3125 C-0.10695313 3.50425781 -0.08890625 2.69601562 -0.0703125 1.86328125 C-0.04710937 1.24839844 -0.02390625 0.63351562 0 0 Z " fill="#767677" transform="translate(308,307)"/>
<path d="M0 0 C0.66 0 1.32 0 2 0 C3.26237731 2.52475462 3.09856404 4.31200466 3.0625 7.125 C3.05347656 8.03507812 3.04445313 8.94515625 3.03515625 9.8828125 C3.02355469 10.58148438 3.01195312 11.28015625 3 12 C2.01 12 1.02 12 0 12 C0 11.34 0 10.68 0 10 C-0.66 9.67 -1.32 9.34 -2 9 C-1.34 6.03 -0.68 3.06 0 0 Z " fill="#667E98" transform="translate(359,311)"/>
<path d="M0 0 C0.33 0 0.66 0 1 0 C1.33 1.98 1.66 3.96 2 6 C2.99 4.68 3.98 3.36 5 2 C5.33 5.3 5.66 8.6 6 12 C3.03 11.505 3.03 11.505 0 11 C0 7.37 0 3.74 0 0 Z " fill="#AFAFB1" transform="translate(277,312)"/>
<path d="M0 0 C0 0.66 0 1.32 0 2 C-0.66 2 -1.32 2 -2 2 C-2.33 2.99 -2.66 3.98 -3 5 C-3.66 5 -4.32 5 -5 5 C-5.33 5.99 -5.66 6.98 -6 8 C-7.84765625 8.73046875 -7.84765625 8.73046875 -10.0625 9.1875 C-10.79597656 9.34605469 -11.52945312 9.50460938 -12.28515625 9.66796875 C-12.85105469 9.77753906 -13.41695313 9.88710937 -14 10 C-4.57142857 0 -4.57142857 0 0 0 Z " fill="#B3D4EB" transform="translate(324,77)"/>
<path d="M0 0 C0.66 0.33 1.32 0.66 2 1 C1.01 1.33 0.02 1.66 -1 2 C-2.0390717 9.02782042 -2.0390717 9.02782042 -1 16 C-1.99 16 -2.98 16 -4 16 C-5.44449671 7.03715898 -5.44449671 7.03715898 -3.6875 2.9375 C-2 1 -2 1 0 0 Z " fill="#D9CBDB" transform="translate(182,98)"/>
<path d="M0 0 C0.33 0 0.66 0 1 0 C0.31195504 6.19240462 -1.28048715 12.01955594 -3 18 C-3.66 18 -4.32 18 -5 18 C-4.42934122 11.58008874 -2.32655091 5.98410537 0 0 Z " fill="#F4E1AD" transform="translate(251,64)"/>
<path d="M0 0 C0.99 0 1.98 0 3 0 C3 0.99 3 1.98 3 3 C2.01 3 1.02 3 0 3 C0 2.01 0 1.02 0 0 Z M0 3 C-0.33 3.66 -0.66 4.32 -1 5 C-1.99 5.33 -2.98 5.66 -4 6 C-4.33 6.66 -4.66 7.32 -5 8 C-5.99 8 -6.98 8 -8 8 C-8.33 8.66 -8.66 9.32 -9 10 C-9 8.35 -9 6.7 -9 5 C-5.86501708 3.14223235 -3.62528568 2.79859524 0 3 Z " fill="#79797C" transform="translate(293,310)"/>
<path d="M0 0 C3.53164382 0.50452055 5.05394189 0.95609956 7.5 3.5 C7.5 4.16 7.5 4.82 7.5 5.5 C6.51 5.5 5.52 5.5 4.5 5.5 C4.17 4.84 3.84 4.18 3.5 3.5 C1.17843403 3.09270772 -1.1568787 2.75561323 -3.5 2.5 C-3.5 3.16 -3.5 3.82 -3.5 4.5 C-4.82 4.83 -6.14 5.16 -7.5 5.5 C-5.23191499 1.87106398 -4.33795924 0.61970846 0 0 Z " fill="#F4E1B6" transform="translate(259.5,58.5)"/>
<path d="M0 0 C2.64 0 5.28 0 8 0 C8 1.32 8 2.64 8 4 C5.36 4 2.72 4 0 4 C0 2.68 0 1.36 0 0 Z " fill="#939397" transform="translate(214,325)"/>
<path d="M0 0 C1.32 0 2.64 0 4 0 C4.33 2.31 4.66 4.62 5 7 C3.68 7 2.36 7 1 7 C0 6 0 6 -0.0625 2.9375 C-0.041875 1.968125 -0.02125 0.99875 0 0 Z " fill="#8A8A8B" transform="translate(313,315)"/>
<path d="M0 0 C0.99 0.33 1.98 0.66 3 1 C3 4.3 3 7.6 3 11 C2.67 10.01 2.34 9.02 2 8 C1.34 8 0.68 8 0 8 C0 6.68 0 5.36 0 4 C-1.32 3.34 -2.64 2.68 -4 2 C-2.68 2 -1.36 2 0 2 C0 1.34 0 0.68 0 0 Z " fill="#727275" transform="translate(323,311)"/>
<path d="M0 0 C1.875 0.3125 1.875 0.3125 4 1 C6.29013653 4.4352048 6.17842973 5.985331 6 10 C5.34 10 4.68 10 4 10 C3.67 8.35 3.34 6.7 3 5 C2.01 4.67 1.02 4.34 0 4 C0 2.66666667 0 1.33333333 0 0 Z " fill="#939295" transform="translate(177,216)"/>
<path d="M0 0 C2.64 0 5.28 0 8 0 C8 0.66 8 1.32 8 2 C6.35 2.33 4.7 2.66 3 3 C3 3.66 3 4.32 3 5 C1.68 4.67 0.36 4.34 -1 4 C-0.67 2.68 -0.34 1.36 0 0 Z " fill="#8A8A8C" transform="translate(314,307)"/>
<path d="M0 0 C0.99 0 1.98 0 3 0 C3.125 2.375 3.125 2.375 3 5 C1 7 1 7 -1.625 7.125 C-2.40875 7.08375 -3.1925 7.0425 -4 7 C-3.34 6.67 -2.68 6.34 -2 6 C-1.27306096 4.02111039 -0.60183749 2.02045442 0 0 Z " fill="#7D7C80" transform="translate(203,297)"/>
<path d="M0 0 C0.66 0.66 1.32 1.32 2 2 C2.33 1.34 2.66 0.68 3 0 C3.66 0 4.32 0 5 0 C5.33 0.99 5.66 1.98 6 3 C8.00016466 4.20882096 8.00016466 4.20882096 10 5 C7.23735711 5.59732819 4.83967231 6 2 6 C0 3 0 3 0 0 Z " fill="#98989E" transform="translate(375,316)"/>
<path d="M0 0 C0.625 1.8125 0.625 1.8125 1 4 C0.01 5.485 0.01 5.485 -1 7 C-1 6.01 -1 5.02 -1 4 C-3.31 4.33 -5.62 4.66 -8 5 C-7.67 4.01 -7.34 3.02 -7 2 C-3.4375 0.8125 -3.4375 0.8125 0 0 Z " fill="#7C7B7C" transform="translate(358,313)"/>
<path d="M0 0 C0.598125 0.20625 1.19625 0.4125 1.8125 0.625 C0.8225 0.625 -0.1675 0.625 -1.1875 0.625 C-0.4111068 3.6995356 -0.4111068 3.6995356 1.8125 5.625 C1.1525 6.945 0.4925 8.265 -0.1875 9.625 C-2.6625 5.665 -2.6625 5.665 -5.1875 1.625 C-2.1875 -0.375 -2.1875 -0.375 0 0 Z " fill="#A2A2A4" transform="translate(235.1875,216.375)"/>
<path d="M0 0 C1.32 0.66 2.64 1.32 4 2 C3.67 2.99 3.34 3.98 3 5 C2.34 4.67 1.68 4.34 1 4 C1 4.66 1 5.32 1 6 C-1.64 6.33 -4.28 6.66 -7 7 C-6.67 6.34 -6.34 5.68 -6 5 C-3.4375 4.375 -3.4375 4.375 -1 4 C-1.33 3.34 -1.66 2.68 -2 2 C-1.34 2 -0.68 2 0 2 C0 1.34 0 0.68 0 0 Z " fill="#B3B4B4" transform="translate(322,307)"/>
<path d="M0 0 C1.65 0 3.3 0 5 0 C4.3125 2.375 4.3125 2.375 3 5 C0.375 6.3125 0.375 6.3125 -2 7 C-2.33 6.01 -2.66 5.02 -3 4 C-2.34 3.34 -1.68 2.68 -1 2 C-0.67 1.34 -0.34 0.68 0 0 Z " fill="#75767A" transform="translate(306,217)"/>
<path d="M0 0 C4.29 0 8.58 0 13 0 C13.33 0.66 13.66 1.32 14 2 C13.30132812 1.96519531 12.60265625 1.93039062 11.8828125 1.89453125 C10.97273438 1.86746094 10.06265625 1.84039062 9.125 1.8125 C8.22007812 1.77769531 7.31515625 1.74289062 6.3828125 1.70703125 C5.59648437 1.80371094 4.81015625 1.90039062 4 2 C3.01 3.485 3.01 3.485 2 5 C1.34 3.35 0.68 1.7 0 0 Z M7 2 C9 3 9 3 9 3 Z " fill="#939295" transform="translate(266,307)"/>
<path d="M0 0 C0.66 0.33 1.32 0.66 2 1 C1.67 1.66 1.34 2.32 1 3 C-0.32 2.67 -1.64 2.34 -3 2 C-3.33 2.66 -3.66 3.32 -4 4 C-5.65 4 -7.3 4 -9 4 C-8.67 3.01 -8.34 2.02 -8 1 C-5.26094655 -0.36952673 -3.02912668 -0.12621361 0 0 Z " fill="#929294" transform="translate(166,216)"/>
<path d="M0 0 C0 1.98 0 3.96 0 6 C-1.65 6 -3.3 6 -5 6 C-3.68 5.67 -2.36 5.34 -1 5 C-1 3.68 -1 2.36 -1 1 C-2.65 1.33 -4.3 1.66 -6 2 C-6 1.34 -6 0.68 -6 0 C-6.99 -0.33 -7.98 -0.66 -9 -1 C-5.23375329 -2.25541557 -3.62811066 -1.37061958 0 0 Z " fill="#A2A1A4" transform="translate(323,315)"/>
<path d="M0 0 C1.97986082 0.11347619 3.95891598 0.2410935 5.9375 0.375 C7.03964844 0.44460937 8.14179688 0.51421875 9.27734375 0.5859375 C10.62505859 0.79089844 10.62505859 0.79089844 12 1 C12.33 1.66 12.66 2.32 13 3 C11.39667209 3.08121924 9.79215974 3.13929134 8.1875 3.1875 C7.29417969 3.22230469 6.40085937 3.25710937 5.48046875 3.29296875 C2.58352485 2.95081002 1.77444972 2.24606427 0 0 Z " fill="#BAD8EB" transform="translate(272,189)"/>
<path d="M0 0 C2.31 0.33 4.62 0.66 7 1 C7 1.99 7 2.98 7 4 C4.69 4 2.38 4 0 4 C-0.33 3.34 -0.66 2.68 -1 2 C-0.67 1.34 -0.34 0.68 0 0 Z " fill="#757578" transform="translate(225,313)"/>
<path d="M0 0 C0.99 0.33 1.98 0.66 3 1 C2.67 3.31 2.34 5.62 2 8 C0.4375 6.8125 0.4375 6.8125 -1 5 C-0.6875 2.3125 -0.6875 2.3125 0 0 Z " fill="#959597" transform="translate(235,315)"/>
<path d="M0 0 C0.66 0 1.32 0 2 0 C2 1.32 2 2.64 2 4 C1.34 4 0.68 4 0 4 C0.33 5.98 0.66 7.96 1 10 C-0.98 10.99 -0.98 10.99 -3 12 C-2.67 11.34 -2.34 10.68 -2 10 C-1.69208131 7.66922657 -1.49104726 5.33758104 -1.28125 2.99609375 C-1 1 -1 1 0 0 Z " fill="#969697" transform="translate(217,309)"/>
<path d="M0 0 C3.15330554 0.60694155 5.18888867 1.6416665 7.75 3.5625 C8.67039063 4.24505859 8.67039063 4.24505859 9.609375 4.94140625 C10.29773438 5.46541016 10.29773438 5.46541016 11 6 C9.125 6.6171875 9.125 6.6171875 7 7 C5.62437146 5.71034824 4.29233607 4.37310707 3 3 C0.8618034 2.2127322 0.8618034 2.2127322 -1 2 C-0.67 1.34 -0.34 0.68 0 0 Z " fill="#DFD1E1" transform="translate(206,105)"/>
<path d="M0 0 C0.33 0.66 0.66 1.32 1 2 C1.66 2 2.32 2 3 2 C3 2.66 3 3.32 3 4 C0.36 4.33 -2.28 4.66 -5 5 C-4.67 3.68 -4.34 2.36 -4 1 C-2.68 0.67 -1.36 0.34 0 0 Z " fill="#919295" transform="translate(356,319)"/>
<path d="M0 0 C1.37562854 1.28965176 2.70766393 2.62689293 4 4 C4 4.66 4 5.32 4 6 C1.03 5.505 1.03 5.505 -2 5 C-2.33 4.01 -2.66 3.02 -3 2 C-2.01 1.34 -1.02 0.68 0 0 Z " fill="#9A9A9C" transform="translate(302,318)"/>
<path d="M0 0 C0.99 0.33 1.98 0.66 3 1 C2.67 2.65 2.34 4.3 2 6 C0.35 5.67 -1.3 5.34 -3 5 C-2.01 3.35 -1.02 1.7 0 0 Z " fill="#A7A7A8" transform="translate(263,317)"/>
<path d="M0 0 C2.0625 0.4375 2.0625 0.4375 4 1 C4 1.99 4 2.98 4 4 C2.35 4.33 0.7 4.66 -1 5 C-1 1 -1 1 0 0 Z " fill="#9B9A9B" transform="translate(350,307)"/>
<path d="M0 0 C0 3.75366417 -1.11420063 5.78715662 -3 9 C-3.99 9.33 -4.98 9.66 -6 10 C-5.49477778 5.62140745 -2.82172778 3.18348776 0 0 Z " fill="#BBD9EA" transform="translate(299,97)"/>
<path d="M0 0 C0.66 0 1.32 0 2 0 C2.66 3.96 3.32 7.92 4 12 C3.34 12 2.68 12 2 12 C0.70756464 7.8803623 -0.26252625 4.33168317 0 0 Z " fill="#B5D5E8" transform="translate(352,80)"/>
<path d="M0 0 C2.62901288 1.52206009 4.84365964 2.84365964 7 5 C5.35 5.66 3.7 6.32 2 7 C0 5 0 5 -0.125 2.375 C-0.08375 1.59125 -0.0425 0.8075 0 0 Z " fill="#A7A6A8" transform="translate(283,316)"/>
<path d="M0 0 C-0.99 2.31 -1.98 4.62 -3 7 C-3.33 7 -3.66 7 -4 7 C-4 5.35 -4 3.7 -4 2 C-4.99 1.67 -5.98 1.34 -7 1 C-3.375 -1.125 -3.375 -1.125 0 0 Z " fill="#9C9C9E" transform="translate(296,314)"/>
<path d="M0 0 C0.99 0.33 1.98 0.66 3 1 C1.29171079 3.10633718 0.47851584 3.93801608 -2.26171875 4.29296875 C-3.06222656 4.25816406 -3.86273438 4.22335937 -4.6875 4.1875 C-5.49574219 4.16042969 -6.30398437 4.13335937 -7.13671875 4.10546875 C-7.75160156 4.07066406 -8.36648437 4.03585937 -9 4 C-9 3.67 -9 3.34 -9 3 C-6.69 3 -4.38 3 -2 3 C-2 2.34 -2 1.68 -2 1 C-1.34 0.67 -0.68 0.34 0 0 Z " fill="#979798" transform="translate(235,307)"/>
<path d="M0 0 C2.64 0 5.28 0 8 0 C7.01 0.495 7.01 0.495 6 1 C6 1.66 6 2.32 6 3 C4.02 3 2.04 3 0 3 C0 2.01 0 1.02 0 0 Z " fill="#77777A" transform="translate(227,307)"/>
<path d="M0 0 C1.98 0.66 3.96 1.32 6 2 C5.34 3.32 4.68 4.64 4 6 C4 5.34 4 4.68 4 4 C2.68 3.67 1.36 3.34 0 3 C0 2.01 0 1.02 0 0 Z " fill="#898B8E" transform="translate(249,274)"/>
<path d="M0 0 C1.53445094 3.06890187 0.54984289 5.70094266 0 9 C-0.99 8.01 -1.98 7.02 -3 6 C-1.125 1.125 -1.125 1.125 0 0 Z " fill="#797978" transform="translate(378,310)"/>
<path d="M0 0 C1.74834267 2.622514 2.51529754 3.99484478 3 7 C2.67 7.66 2.34 8.32 2 9 C1.34 9 0.68 9 0 9 C0 6.03 0 3.06 0 0 Z " fill="#898688" transform="translate(363,314)"/>
<path d="M0 0 C0.66 0.33 1.32 0.66 2 1 C2.625 3.5625 2.625 3.5625 3 6 C1.68 6.33 0.36 6.66 -1 7 C-0.67 4.69 -0.34 2.38 0 0 Z " fill="#8E8E91" transform="translate(264,309)"/>
<path d="M0 0 C1.5 1 1.5 1 3 3 C3.27345479 5.71846235 3.13491285 8.25677199 3 11 C0.87953208 7.46588679 0.46800711 4.05606165 0 0 Z " fill="#F4E7BB" transform="translate(246,116)"/>
</svg>
